<mxfile host="app.diagrams.net" modified="2021-12-10T13:03:55.150Z" agent="5.0 (Windows NT 10.0; Win64; x64) AppleWebKit/537.36 (KHTML, like Gecko) Chrome/96.0.4664.93 Safari/537.36" etag="hU4JRfAiQZoqNpDfjZV7" version="15.9.4" type="github">
  <diagram id="GhecuStuP_ve887YyBlI" name="Page-1">
    <mxGraphModel dx="1278" dy="547" grid="1" gridSize="10" guides="1" tooltips="1" connect="1" arrows="1" fold="1" page="1" pageScale="1" pageWidth="827" pageHeight="1169" math="0" shadow="0">
      <root>
        <mxCell id="0" />
        <mxCell id="1" parent="0" />
        <mxCell id="T9ga1v2wnevFFHqzPRlr-1" value="" style="shape=umlLifeline;participant=umlActor;perimeter=lifelinePerimeter;whiteSpace=wrap;html=1;container=1;collapsible=0;recursiveResize=0;verticalAlign=top;spacingTop=36;outlineConnect=0;" parent="1" vertex="1">
          <mxGeometry x="40" y="170" width="20" height="220" as="geometry" />
        </mxCell>
        <mxCell id="T9ga1v2wnevFFHqzPRlr-2" value="" style="html=1;points=[];perimeter=orthogonalPerimeter;" parent="T9ga1v2wnevFFHqzPRlr-1" vertex="1">
          <mxGeometry x="5" y="50" width="10" height="160" as="geometry" />
        </mxCell>
        <mxCell id="T9ga1v2wnevFFHqzPRlr-3" value=":DX Controller" style="shape=umlLifeline;perimeter=lifelinePerimeter;whiteSpace=wrap;html=1;container=1;collapsible=0;recursiveResize=0;outlineConnect=0;" parent="1" vertex="1">
          <mxGeometry x="250" y="170" width="100" height="220" as="geometry" />
        </mxCell>
        <mxCell id="T9ga1v2wnevFFHqzPRlr-4" value="" style="endArrow=block;endSize=16;endFill=0;html=1;rounded=0;edgeStyle=orthogonalEdgeStyle;" parent="T9ga1v2wnevFFHqzPRlr-3" edge="1">
          <mxGeometry x="-0.0909" y="20" width="160" relative="1" as="geometry">
            <mxPoint x="-180" y="70" as="sourcePoint" />
            <mxPoint x="40" y="70" as="targetPoint" />
            <mxPoint as="offset" />
          </mxGeometry>
        </mxCell>
        <mxCell id="T9ga1v2wnevFFHqzPRlr-5" value="" style="html=1;points=[];perimeter=orthogonalPerimeter;" parent="T9ga1v2wnevFFHqzPRlr-3" vertex="1">
          <mxGeometry x="45" y="50" width="10" height="160" as="geometry" />
        </mxCell>
        <mxCell id="hxD_B0QKVFalC9zc-CC1-3" value="" style="html=1;verticalAlign=bottom;endArrow=open;dashed=1;endSize=8;rounded=0;edgeStyle=orthogonalEdgeStyle;" edge="1" parent="T9ga1v2wnevFFHqzPRlr-3">
          <mxGeometry x="-0.2476" y="-30" relative="1" as="geometry">
            <mxPoint x="254" y="160" as="sourcePoint" />
            <mxPoint x="74" y="160" as="targetPoint" />
            <mxPoint as="offset" />
          </mxGeometry>
        </mxCell>
        <mxCell id="T9ga1v2wnevFFHqzPRlr-6" value=":DX BusinesssLogic" style="shape=umlLifeline;perimeter=lifelinePerimeter;whiteSpace=wrap;html=1;container=1;collapsible=0;recursiveResize=0;outlineConnect=0;" parent="1" vertex="1">
          <mxGeometry x="470" y="170" width="100" height="220" as="geometry" />
        </mxCell>
        <mxCell id="T9ga1v2wnevFFHqzPRlr-7" value="" style="html=1;points=[];perimeter=orthogonalPerimeter;" parent="T9ga1v2wnevFFHqzPRlr-6" vertex="1">
          <mxGeometry x="45" y="70" width="10" height="120" as="geometry" />
        </mxCell>
        <mxCell id="T9ga1v2wnevFFHqzPRlr-8" value=":DX DataAccess" style="shape=umlLifeline;perimeter=lifelinePerimeter;whiteSpace=wrap;html=1;container=1;collapsible=0;recursiveResize=0;outlineConnect=0;" parent="1" vertex="1">
          <mxGeometry x="670" y="170" width="100" height="220" as="geometry" />
        </mxCell>
        <mxCell id="T9ga1v2wnevFFHqzPRlr-12" value="btnLogout_Click" style="endArrow=block;endSize=16;endFill=0;html=1;rounded=0;edgeStyle=orthogonalEdgeStyle;" parent="1" edge="1">
          <mxGeometry y="10" width="160" relative="1" as="geometry">
            <mxPoint x="320" y="270.0000000000001" as="sourcePoint" />
            <mxPoint x="500" y="270.0000000000001" as="targetPoint" />
            <mxPoint as="offset" />
          </mxGeometry>
        </mxCell>
        <mxCell id="T9ga1v2wnevFFHqzPRlr-13" value="Trở về giao diện đăng nhập&amp;nbsp;" style="html=1;verticalAlign=bottom;endArrow=open;dashed=1;endSize=8;rounded=0;edgeStyle=orthogonalEdgeStyle;" parent="1" edge="1">
          <mxGeometry x="-0.0476" relative="1" as="geometry">
            <mxPoint x="280" y="350" as="sourcePoint" />
            <mxPoint x="70" y="350" as="targetPoint" />
            <mxPoint as="offset" />
          </mxGeometry>
        </mxCell>
        <mxCell id="T9ga1v2wnevFFHqzPRlr-14" value="Người dùng" style="text;html=1;align=center;verticalAlign=middle;resizable=0;points=[];autosize=1;strokeColor=none;fillColor=none;" parent="1" vertex="1">
          <mxGeometry x="10" y="140" width="80" height="20" as="geometry" />
        </mxCell>
        <mxCell id="hxD_B0QKVFalC9zc-CC1-1" value="&lt;span style=&quot;font-size: 11px ; background-color: rgb(255 , 255 , 255)&quot;&gt;AdminForm or DangKyHocPhanForm&lt;/span&gt;" style="text;html=1;align=center;verticalAlign=middle;resizable=0;points=[];autosize=1;strokeColor=none;fillColor=none;" vertex="1" parent="1">
          <mxGeometry x="70" y="220" width="200" height="20" as="geometry" />
        </mxCell>
        <mxCell id="hxD_B0QKVFalC9zc-CC1-4" value="return status" style="text;whiteSpace=wrap;html=1;" vertex="1" parent="1">
          <mxGeometry x="380" y="310" width="90" height="30" as="geometry" />
        </mxCell>
      </root>
    </mxGraphModel>
  </diagram>
</mxfile>
